Patient4_TMGait_0pt2_03_left_03_EMG.mot
version=1
nRows=19
nColumns=33
inDegrees=no
endheader
time	1LAddLong	2LGlutMax	3LGlutMed	4LIliopsoas	5LSemiMemb	6LBicFemLong	7LRecFem	8LVastMed	9LVastLat	10LGasMed	11LTibAnt	12lTibPost	13LPeroneusLong	14LSol	15LExtDigLong	16LFlexDigLong	17RAddLong	18RGlutMax	19RGlutMed	20RIliopsoas	21RSemiMemb	22RBicFemLong	23RRecFem	24RVastMed	25RVastLat	26RGasMed	27RTibAnt	28RTibPost	29RPeroneusLong	30RSol	31RExtDigLong	32RFlexDigLong
7.328	0.002289	-0.088501	0.019226	-0.014343	-0.012207	0.009766	0.027618	0.008087	-0.005646	-0.023956	-0.031738	0.001831	-0.039215	-0.02121	-0.07309	-0.002747	0.070496	0.036926	-0.72357	0.052795	-0.039825	-0.09903	0.82169	0.84686	1.0527	0.013733	-0.43518	-0.010071	0.74661	-0.19363	-0.007935	-0.002136
7.329	0.007629	-0.064545	-0.015259	-0.006714	-0.004883	0.008698	0.076294	0.003967	-0.00061	-0.01709	-0.064392	-0.00351	-0.027008	-0.015106	-0.060272	0.001221	0.076294	0.08316	1.0551	-0.013428	-0.038605	-0.10971	0.67444	0.12573	0.39703	-0.007629	-0.29602	-0.010529	-0.050812	0.20386	-0.006256	-0.00061
7.33	0.003815	-0.079193	-0.11765	0.003052	-0.010376	0.018921	0.10452	0.003052	-0.00885	-0.024872	-0.036774	0.002136	-0.048523	0.01358	-0.026703	-0.001984	0.075531	-0.026703	0.13046	-0.016022	-0.038452	-0.068665	0.44784	-0.43991	-0.23468	-0.018616	-0.18555	-0.018005	-0.24674	0.37308	-0.007629	-0.007172
7.331	0.009155	-0.070496	-0.20004	0.01358	-0.016479	0.014801	0.063477	0.003815	0.002441	-0.019684	-0.021362	0.003967	0.000763	-0.020142	0.030975	0.002441	0.074615	0.02594	-0.38193	-0.037384	-0.036011	-0.032349	0.21347	-0.77728	-0.056915	-0.022888	0.016632	-0.010223	-0.023651	0.439	-0.002136	-0.005493
7.332	0.006104	-0.058594	-0.16876	-0.008698	-0.011902	-0.004272	0.024567	0.001831	-0.009003	-0.020752	-0.006256	0.002289	-0.00351	-0.07019	0.040436	0.002899	0.035706	0.1001	-0.57709	-0.061646	0.002899	0.01709	-0.04364	-0.97992	0.513	-0.035553	0.15213	-0.008087	0.20859	0.58899	0.001984	-0.004425
7.333	0.00885	-0.032196	-0.096741	-0.01236	-0.006104	-0.007629	0.001221	0.001831	-0.008545	-0.016937	-0.00946	0.003967	-0.014191	-0.079956	0.029907	-0.001678	0.018158	0.14221	0.54214	-0.12726	0.014648	0.035858	-0.55054	-1.5012	0.11429	-0.036926	0.34027	-0.010834	0.1648	0.48966	-0.001984	-0.012817
7.334	0.011292	-0.062714	0.09552	0.00412	-0.003967	-0.015717	-0.006561	0.00412	-0.014191	-0.009613	-0.011444	0.016022	-0.015106	-0.09552	0.080414	0.010986	0.027771	0.10544	0.1329	-0.091553	0.015717	0.021667	-0.29205	-1.2328	-0.39581	-0.032959	0.11261	-0.005035	-0.090332	0.29724	0.000916	-0.009613
7.335	0.00946	-0.048218	0.11734	-0.003967	-0.001526	0.014648	-0.051422	0.002594	-0.023804	-0.02121	0.004425	0.005646	-0.011902	-0.071106	0.071869	0.008545	0.060272	0.15289	-0.10254	-0.15717	-0.009918	-0.025787	0.65643	-0.80124	-1.1255	-0.031738	-0.40832	-0.003967	-0.36789	0.15762	-0.001984	-0.008545
7.336	0.010071	-0.075684	0.13382	-0.011597	0.001068	0.008087	-0.09903	0.003204	-0.018311	-0.022278	0.029907	-0.000305	-0.030212	-0.031433	0.029297	0.000458	0.019836	0.15442	-0.13473	-0.058594	-0.010529	-0.037384	1.1554	-0.61951	-1.1716	-0.032043	-0.33844	-0.007935	-0.69397	0.21194	-0.00351	-0.009155
7.337	-0.00412	-0.069275	0.094299	0.009155	0.003662	-0.002899	-0.086212	0.002594	-0.010223	-0.037079	0.09079	0.001373	-0.023956	-0.012817	-0.023651	-0.001221	-0.018768	0.096436	-0.16983	0.066223	0.019073	-0.048828	0.93079	-0.41855	-0.92682	-0.021973	-0.079651	-0.008545	0.86655	0.16083	-0.00473	-0.003662
7.338	0.001221	-0.058289	0.059967	0.002747	0.006866	-0.018463	-0.055695	-0.003967	-0.005493	-0.015411	0.093994	0.012817	-0.03891	-0.033264	-0.14679	0.000305	0.016479	0.007629	-0.34958	0.074463	0.014954	-0.060272	0.46097	-0.2388	-0.63217	-0.014801	-0.36957	-0.009308	1.2439	-0.006256	-0.00061	-0.006409
7.339	0.009613	-0.042114	0.046844	0.018158	0.002289	0.014191	-0.036774	0.001678	-0.010529	-0.017548	0.035858	0.004425	-0.018768	-0.025482	0.034485	0.00473	0.041199	-0.026398	-0.1207	0.077667	0.004425	-0.010376	-0.043488	0.36987	-0.19226	-0.008392	-0.39063	-0.010071	0.43289	-0.13031	-0.002136	-0.002899
7.34	0.001221	-0.066071	0.003815	-0.007629	0.007477	0.009308	-0.064545	-0.002899	-0.018005	-0.019836	0.053406	0.000458	-0.029297	-0.025024	0.094299	0.003204	0.052795	0.045776	0.96939	0.008392	-0.014648	0.002289	-0.59784	0.82245	-0.10712	-0.009308	-0.083008	-0.007477	-0.15961	-0.088959	0	-0.018311
7.341	0.007477	-0.0354	-0.032959	-0.006561	0.005188	0.008392	-0.041962	-0.002594	-0.018005	-0.030212	0.007172	-0.006256	-0.003967	-0.016479	0.40207	0.014496	0.086365	0.023804	0.69488	0.001526	-0.036316	0.002441	-1.2808	0.8403	0.018921	-0.010986	0.48248	-0.007324	-0.95352	-0.025177	0.009155	-0.01297
7.342	0.015869	-0.052643	-0.043488	0.005646	0.00473	0.042572	-0.018463	0.000763	-0.023651	-0.029602	-0.05661	0.005341	0.001221	-0.010681	-0.19943	0.008392	0.071869	-0.047607	0.62256	0.048981	0.030975	-0.027924	-1.4374	0.069885	0.79941	-0.009613	0.75333	-0.006256	-1.214	0.063171	-0.002441	-0.013275
7.343	0.009613	-0.084839	-0.090332	0.006409	0.004883	0.046997	-0.039368	0.003357	-0.016937	-0.046387	-0.023651	0.005798	0.032501	-0.04837	-0.37933	0.005341	0.041504	-0.091858	-0.051727	0.19653	0.048218	-0.016022	-0.84885	-0.097961	1.6449	-0.011292	0.30258	-0.005951	-0.20584	0.10223	-0.002747	-0.010986
7.344	0.007172	-0.06424	-0.042419	0.024872	-0.001068	0.042267	-0.010681	0.002899	-0.00885	-0.040283	-0.064697	-0.00061	0.005035	-0.054779	-0.27008	0.005341	0.003357	-0.055237	-0.035858	0.25482	-0.042114	0.00946	-0.66055	-0.06897	2.0912	-0.006866	0.15076	-0.010223	1.0074	0.039978	-0.002136	-0.010681
7.345	0.002899	-0.032196	-0.068207	0.021667	0.002747	0.029144	-0.029602	0.003662	-0.01236	-0.028687	-0.08255	0.000305	0.014191	-0.079651	-0.19959	0.005951	-0.055847	-0.04425	0.26718	-0.075836	-0.082397	0.037842	-0.39169	0.79117	2.0526	-0.007324	0.020752	-0.007935	0.82062	-0.15259	-0.002441	0.001678
7.346	0.002441	-0.040131	-0.15579	0.029907	0.000305	0.0354	0.00473	0.010071	-0.014648	-0.02533	-0.010834	0.00824	-0.01709	-0.077362	0.003662	0.003204	-0.10513	-0.082092	0.12375	-0.21454	-0.017853	0.068054	-0.44617	0.96847	1.6255	-0.02243	0.3569	-0.010071	0.20721	-0.025635	-0.004578	-0.010223
